<svg width="180" height="189" viewBox="0 0 180 189" version="1.1" xmlns="http://www.w3.org/2000/svg" xmlns:xlink="http://www.w3.org/1999/xlink">
<title>Cleaning Icon</title>
<desc>Created using Figma</desc>
<g id="Canvas" transform="matrix(3 0 0 3 1815 -5679)">
<g id="Cleaning Icon">
<g id="Page 1">
<g id="Fill 61">
<use xlink:href="#path0_fill" transform="translate(-604.01 1929.91)" fill="#FFCC0A"/>
</g>
<g id="Fill 62">
<use xlink:href="#path1_fill" transform="translate(-605 1929.28)" fill="#3B3A3B"/>
</g>
<g id="Fill 63">
<use xlink:href="#path2_fill" transform="translate(-592.489 1933.82)" fill="#3B3A3B"/>
</g>
<g id="Fill 64">
<use xlink:href="#path3_fill" transform="translate(-593.512 1931.83)" fill="#3B3A3B"/>
</g>
<g id="Fill 65">
<use xlink:href="#path4_fill" transform="translate(-560.291 1914.91)" fill="#3B3A3B"/>
</g>
<g id="Fill 66">
<use xlink:href="#path5_fill" transform="translate(-573.974 1946.56)" fill="#3B3A3B"/>
</g>
<g id="Fill 67">
<use xlink:href="#path5_fill" transform="translate(-573.974 1954.31)" fill="#3B3A3B"/>
</g>
<g id="Fill 68">
<use xlink:href="#path6_fill" transform="translate(-573.974 1949.26)" fill="#3B3A3B"/>
</g>
<g id="Fill 69">
<use xlink:href="#path7_fill" transform="translate(-573.995 1946.73)" fill="#3B3A3B"/>
</g>
<g id="Fill 70">
<use xlink:href="#path8_fill" transform="translate(-570.123 1949.29)" fill="#3B3A3B"/>
</g>
<g id="Fill 71">
<use xlink:href="#path9_fill" transform="translate(-566.252 1949.29)" fill="#3B3A3B"/>
</g>
<g id="Fill 72">
<use xlink:href="#path10_fill" transform="translate(-562.38 1949.29)" fill="#3B3A3B"/>
</g>
<g id="Fill 73">
<use xlink:href="#path11_fill" transform="translate(-558.507 1949.29)" fill="#3B3A3B"/>
</g>
<g id="Fill 74">
<use xlink:href="#path12_fill" transform="translate(-554.635 1949.29)" fill="#3B3A3B"/>
</g>
<g id="Fill 75">
<use xlink:href="#path13_fill" transform="translate(-550.764 1949.29)" fill="#3B3A3B"/>
</g>
<g id="Fill 76">
<use xlink:href="#path14_fill" transform="translate(-546.891 1946.73)" fill="#3B3A3B"/>
</g>
<g id="Fill 77">
<use xlink:href="#path15_fill" transform="translate(-562.891 1893)" fill="#3B3A3B"/>
</g>
<g id="Fill 78">
<use xlink:href="#path16_fill" transform="translate(-603.858 1921.89)" fill="#3B3A3B"/>
</g>
</g>
</g>
</g>
<defs>
<path id="path0_fill" fill-rule="evenodd" d="M -2.4992e-07 7.14701e-07L 29.2291 7.14701e-07L 22.1476 25.3944L 7.2105 25.3944L -2.4992e-07 7.14701e-07Z"/>
<path id="path1_fill" fill-rule="evenodd" d="M 9.00289 24.9444L 22.4767 24.9444L 29.0939 1.6845L 2.3865 1.6845L 9.00289 24.9444ZM 23.9044 26.6296L 7.57516 26.6296L 6.97889e-07 5.72622e-07L 31.4804 5.72622e-07L 23.9044 26.6296Z"/>
<path id="path2_fill" fill-rule="evenodd" d="M 13.5792 12.4729C 8.72353 12.4729 2.32655 8.07827 0.0389362 1.08352C -0.107082 0.638409 0.170277 0.168612 0.658548 0.0352914C 1.14605 -0.097324 1.66136 0.155211 1.8066 0.601729C 4.09963 7.61059 10.4896 11.0614 14.0443 10.7694C 15.4257 10.6544 16.3698 10.0534 16.7738 9.03268C 17.3865 7.48573 16.6494 5.2863 15.0216 3.80355C 14.66 3.47483 15.9634 2.2827 16.3242 2.61142C 18.4681 4.56256 19.3666 7.43918 18.5098 9.60547C 17.8539 11.2617 16.3273 12.2719 14.2112 12.4468C 14.0041 12.4638 13.7932 12.4729 13.5792 12.4729Z"/>
<path id="path3_fill" fill-rule="evenodd" d="M 1.92064 1.55856e-06C 2.98294 1.55856e-06 3.8436 0.785818 3.8436 1.75504C 3.8436 2.72355 2.98294 3.51008 1.92064 3.51008C 0.860656 3.51008 -3.34798e-07 2.72355 -3.34798e-07 1.75504C -3.34798e-07 0.785818 0.860656 1.55856e-06 1.92064 1.55856e-06Z"/>
<path id="path4_fill" fill-rule="evenodd" d="M 0.922462 32.3751C 0.412558 32.3751 -5.46994e-07 31.9984 -5.46994e-07 31.5328L -5.46994e-07 0.842249C -5.46994e-07 0.37739 0.412558 1.93744e-07 0.922462 1.93744e-07C 1.43237 1.93744e-07 1.84492 0.37739 1.84492 0.842249L 1.84492 31.5328C 1.84492 31.9984 1.43237 32.3751 0.922462 32.3751Z"/>
<path id="path5_fill" fill-rule="evenodd" d="M 28.0092 1.6852L 0.922462 1.6852C 0.412558 1.6852 -8.91223e-07 1.30852 -8.91223e-07 0.842953C -8.91223e-07 0.377388 0.412558 -1.31746e-06 0.922462 -1.31746e-06L 28.0092 -1.31746e-06C 28.5191 -1.31746e-06 28.9324 0.377388 28.9324 0.842953C 28.9324 1.30852 28.5191 1.6852 28.0092 1.6852Z"/>
<path id="path6_fill" fill-rule="evenodd" d="M 28.0092 1.6852L 0.922462 1.6852C 0.412558 1.6852 -8.91223e-07 1.30852 -8.91223e-07 0.842953C -8.91223e-07 0.377388 0.412558 -1.1883e-06 0.922462 -1.1883e-06L 28.0092 -1.1883e-06C 28.5191 -1.1883e-06 28.9324 0.377388 28.9324 0.842953C 28.9324 1.30852 28.5191 1.6852 28.0092 1.6852Z"/>
<path id="path7_fill" fill-rule="evenodd" d="M 0.94564 8.65174C 0.423374 8.65174 4.66831e-07 8.11634 4.66831e-07 7.45609L 4.66831e-07 1.19636C 4.66831e-07 0.535398 0.423374 -3.44434e-07 0.94564 -3.44434e-07C 1.4679 -3.44434e-07 1.89128 0.535398 1.89128 1.19636L 1.89128 7.45609C 1.89128 8.11634 1.4679 8.65174 0.94564 8.65174Z"/>
<path id="path8_fill" fill-rule="evenodd" d="M 0.945639 6.09466C 0.423374 6.09466 -4.14961e-07 5.71798 -4.14961e-07 5.25242L -4.14961e-07 0.842954C -4.14961e-07 0.378094 0.423374 -3.44434e-07 0.945639 -3.44434e-07C 1.4679 -3.44434e-07 1.89128 0.378094 1.89128 0.842954L 1.89128 5.25242C 1.89128 5.71798 1.4679 6.09466 0.945639 6.09466Z"/>
<path id="path9_fill" fill-rule="evenodd" d="M 0.945639 6.09466C 0.423374 6.09466 -4.52685e-07 5.71798 -4.52685e-07 5.25242L -4.52685e-07 0.842954C -4.52685e-07 0.378094 0.423374 -3.44434e-07 0.945639 -3.44434e-07C 1.4679 -3.44434e-07 1.89128 0.378094 1.89128 0.842954L 1.89128 5.25242C 1.89128 5.71798 1.4679 6.09466 0.945639 6.09466Z"/>
<path id="path10_fill" fill-rule="evenodd" d="M 0.945638 6.09466C 0.423373 6.09466 -9.148e-07 5.71798 -9.148e-07 5.25242L -9.148e-07 0.842954C -9.148e-07 0.378094 0.423373 -3.44434e-07 0.945638 -3.44434e-07C 1.4679 -3.44434e-07 1.89128 0.378094 1.89128 0.842954L 1.89128 5.25242C 1.89128 5.71798 1.4679 6.09466 0.945638 6.09466Z"/>
<path id="path11_fill" fill-rule="evenodd" d="M 0.945638 6.09466C 0.423373 6.09466 -1.37692e-06 5.71798 -1.37692e-06 5.25242L -1.37692e-06 0.842954C -1.37692e-06 0.378094 0.423373 -3.44434e-07 0.945638 -3.44434e-07C 1.4679 -3.44434e-07 1.89128 0.378094 1.89128 0.842954L 1.89128 5.25242C 1.89128 5.71798 1.4679 6.09466 0.945638 6.09466Z"/>
<path id="path12_fill" fill-rule="evenodd" d="M 0.94564 6.09466C 0.423375 6.09466 1.32033e-06 5.71798 1.32033e-06 5.25242L 1.32033e-06 0.842954C 1.32033e-06 0.378094 0.423375 -3.44434e-07 0.94564 -3.44434e-07C 1.46791 -3.44434e-07 1.89128 0.378094 1.89128 0.842954L 1.89128 5.25242C 1.89128 5.71798 1.46791 6.09466 0.94564 6.09466Z"/>
<path id="path13_fill" fill-rule="evenodd" d="M 0.94564 6.09466C 0.423375 6.09466 6.50734e-07 5.71798 6.50734e-07 5.25242L 6.50734e-07 0.842954C 6.50734e-07 0.378094 0.423375 -3.44434e-07 0.94564 -3.44434e-07C 1.46791 -3.44434e-07 1.89128 0.378094 1.89128 0.842954L 1.89128 5.25242C 1.89128 5.71798 1.46791 6.09466 0.94564 6.09466Z"/>
<path id="path14_fill" fill-rule="evenodd" d="M 0.945639 8.65174C 0.423374 8.65174 1.88619e-07 8.11634 1.88619e-07 7.45609L 1.88619e-07 1.19636C 1.88619e-07 0.535398 0.423374 -3.44434e-07 0.945639 -3.44434e-07C 1.4679 -3.44434e-07 1.89128 0.535398 1.89128 1.19636L 1.89128 7.45609C 1.89128 8.11634 1.4679 8.65174 0.945639 8.65174Z"/>
<path id="path15_fill" fill-rule="evenodd" d="M 2.15319 1.6852C 1.98322 1.6852 1.8457 1.81147 1.8457 1.96595L 1.8457 21.064C 1.8457 21.2185 1.98322 21.3447 2.15319 21.3447L 4.61386 21.3447C 4.78383 21.3447 4.92134 21.2185 4.92134 21.064L 4.92134 1.96595C 4.92134 1.81147 4.78383 1.6852 4.61386 1.6852L 2.15319 1.6852ZM 4.61386 23.0299L 2.15319 23.0299C 0.96573 23.0299 8.95938e-07 22.1482 8.95938e-07 21.064L 8.95938e-07 1.96595C 8.95938e-07 0.881751 0.96573 1.72217e-07 2.15319 1.72217e-07L 4.61386 1.72217e-07C 5.80132 1.72217e-07 6.76704 0.881751 6.76704 1.96595L 6.76704 21.064C 6.76704 22.1482 5.80132 23.0299 4.61386 23.0299Z"/>
<path id="path16_fill" fill-rule="evenodd" d="M 28.3927 8.89722C 27.9848 8.89722 27.6163 8.63199 27.5213 8.24191C 27.0021 6.10172 25.0088 4.60697 22.6749 4.60697C 21.6937 4.60697 20.7442 4.87644 19.9283 5.38644L 18.9417 6.00367L 18.5817 4.94133C 17.9204 2.99372 16.016 1.6845 13.8442 1.6845C 11.6238 1.6845 9.65531 3.09107 9.05656 5.10287L 8.70967 6.2689L 7.66977 5.55785C 7.0293 5.1198 6.27604 4.88772 5.49032 4.88772C 3.56119 4.88772 1.9349 6.30699 1.78657 8.11846C 1.74871 8.58261 1.31684 8.92897 0.825474 8.8944C 0.333339 8.85843 -0.0351824 8.45352 0.00267413 7.98937C 0.222087 5.30532 2.63254 3.20322 5.49032 3.20322C 6.26986 3.20322 7.02853 3.357 7.72849 3.65186C 8.83019 1.45877 11.2059 -1.24427e-06 13.8442 -1.24427e-06C 16.4339 -1.24427e-06 18.744 1.36777 19.8789 3.49103C 20.7527 3.11717 21.7022 2.92177 22.6749 2.92177C 25.8486 2.92177 28.5588 4.95474 29.2657 7.86593C 29.3755 8.3202 29.0741 8.77166 28.5928 8.87606C 28.5256 8.88946 28.4584 8.89722 28.3927 8.89722Z"/>
</defs>
</svg>
